<?xml version="1.0" encoding="utf-8"?>
<!-- Generator: Adobe Illustrator 24.3.0, SVG Export Plug-In . SVG Version: 6.00 Build 0)  -->
<svg version="1.1" id="Layer_1" xmlns="http://www.w3.org/2000/svg" xmlns:xlink="http://www.w3.org/1999/xlink" x="0px" y="0px"
	 viewBox="0 0 512 266.6" style="enable-background:new 0 0 512 266.6;" xml:space="preserve">
<style type="text/css">
	.st0{fill:#0071BB;}
	.st1{fill:#00A89C;}
	.st2{fill:#FA8820;}
</style>
<g>
	<path d="M291.1,237v-16.3h3.3V237H291.1z"/>
	<path d="M309.1,229.9v7.1h-3.3v-6.7c0-0.5,0-1.1,0-1.7c-0.1-1.3-0.8-2.3-2.4-2.3s-2.9,1.3-2.9,4.8v5.7h-3.3v-12.5h3.3v2l0.9-1.4
		c0.9-0.6,1.8-0.9,3-0.9c2.7,0,4.2,1.3,4.4,3.5C309.1,228.2,309.1,228.9,309.1,229.9z"/>
	<path d="M319,237h-3.6l-4.9-12.5h3.6l3.2,10l3.1-10h3.5L319,237z"/>
	<path d="M336.2,231.5h-8.9c0.2,2.7,1.4,3.5,2.9,3.5s2.4-0.8,2.7-2.2h3.3c-0.6,3-3,4.4-5.9,4.4c-3.5,0-6.1-2.2-6.1-6.6
		c0-3.8,2.6-6.7,6.4-6.7c3.8,0,5.8,3,5.8,6.4C336.3,230.7,336.3,231.1,336.2,231.5z M327.4,229.4h5.5c-0.2-1.9-1.1-3.1-2.7-3.1
		S327.7,227.3,327.4,229.4z"/>
	<path d="M348,228.1h-3.3c-0.2-1.1-0.8-1.8-1.9-1.8c-0.9,0-1.4,0.6-1.4,1.3c0,0.9,0.8,1.4,2.9,1.9c2.6,0.6,4.1,1.7,4.1,4
		c0,2.6-2.3,3.8-5.1,3.8c-3.1,0-5.2-1.3-5.5-4.1h3.3c0.3,1.3,1.2,2,2.4,2c1,0,1.8-0.4,1.8-1.3c0-0.9-0.8-1.5-3-2
		c-2.4-0.6-3.9-1.6-3.9-3.8c0-2.4,1.9-3.9,5-3.9C345.9,224.1,347.7,225.7,348,228.1z"/>
	<path d="M354.1,232.5c0,0.4,0,0.8,0,1.1c0.1,1.2,0.5,1.5,2.4,1.3v2.2c-0.7,0.1-1.4,0.2-2.2,0.2c-2.5,0-3.3-0.8-3.5-2.6
		c0-0.6,0-1.1,0-1.8v-6.1H349v-2.2h1.8v-3.1h3.3v3.1h2.6v2.2h-2.6V232.5z"/>
	<path d="M362.1,235.2c0,1.1-0.8,1.9-1.9,1.9c-1.1,0-1.9-0.8-1.9-1.9s0.8-1.9,1.9-1.9C361.3,233.3,362.1,234.1,362.1,235.2z"/>
	<path d="M387.2,237h-3.3v-7.5c0-1.7,0-3.9,0-5.5c-0.4,1.7-1,3.9-1.5,5.5l-2.3,7.6h-3.5l-2.4-7.6c-0.5-1.6-1.1-3.8-1.4-5.5
		c0,1.7,0,3.8,0,5.5v7.5h-3.3v-16.3h5.1l3.7,13.2l3.7-13.2h5V237H387.2z"/>
	<path d="M402.4,230.6c0,3.8-2.4,6.6-6.5,6.6s-6.5-2.8-6.5-6.6s2.4-6.6,6.5-6.6S402.4,226.8,402.4,230.6z M399,230.6
		c0-2.7-1.1-4.3-3.2-4.3c-1.9,0-3.2,1.6-3.2,4.3c0,2.7,1.1,4.3,3.2,4.3C397.8,234.9,399,233.4,399,230.6z"/>
	<path d="M416.2,229.9v7.1h-3.3v-6.7c0-0.5,0-1.1,0-1.7c-0.1-1.3-0.8-2.3-2.4-2.3s-2.9,1.3-2.9,4.8v5.7h-3.3v-12.5h3.3v2l0.9-1.4
		c0.9-0.6,1.8-0.9,3-0.9c2.7,0,4.2,1.3,4.4,3.5C416.2,228.2,416.2,228.9,416.2,229.9z"/>
	<path d="M422.5,221.4c0,1-0.7,1.7-1.7,1.7c-1,0-1.7-0.7-1.7-1.7c0-1,0.7-1.7,1.7-1.7C421.8,219.8,422.5,220.5,422.5,221.4z
		 M419.1,237v-12.6h3.3v12.5h-3.3V237z"/>
	<path d="M429.2,232.5c0,0.4,0,0.8,0,1.1c0.1,1.2,0.5,1.5,2.4,1.3v2.2c-0.7,0.1-1.4,0.2-2.2,0.2c-2.5,0-3.3-0.8-3.5-2.6
		c0-0.6,0-1.1,0-1.8v-6.1h-1.8v-2.2h1.8v-3.1h3.3v3.1h2.6v2.2h-2.6V232.5z"/>
	<path d="M445.8,230.6c0,3.8-2.4,6.6-6.5,6.6c-4.2,0-6.5-2.8-6.5-6.6s2.4-6.6,6.5-6.6C443.5,224.1,445.8,226.8,445.8,230.6z
		 M442.4,230.6c0-2.7-1.1-4.3-3.2-4.3c-1.9,0-3.2,1.6-3.2,4.3c0,2.7,1.1,4.3,3.2,4.3C441.2,234.9,442.4,233.4,442.4,230.6z"/>
	<path d="M455.3,224.2v2.7c-2.7-0.2-4.1,1-4.1,4.4v5.7h-3.3v-12.6h3.3v2.3l1-1.7c0.6-0.6,1.4-0.8,2.2-0.8
		C454.6,224.1,455,224.1,455.3,224.2z"/>
	<path d="M460.3,235.2c0,1.1-0.8,1.9-1.9,1.9c-1.1,0-1.9-0.8-1.9-1.9s0.8-1.9,1.9-1.9C459.5,233.3,460.3,234.1,460.3,235.2z"/>
	<path d="M480.8,237h-3.6c-0.4-1.1-0.6-2-0.8-3.6c-0.2-1.7-0.9-2.8-2.2-2.9c-0.4,0-0.8,0-1.2,0h-1.8v6.6h-3.3v-16.3h5.9
		c0.9,0,1.5,0,2.4,0.1c2.4,0.3,4.3,1.5,4.3,4.3c0,2-1.2,3.4-3.2,4c1.6,0.6,2.3,1.9,2.4,3.8C479.9,234.8,480.2,236.1,480.8,237z
		 M473.3,228c0.6,0,0.9,0,1.3,0c1.3-0.1,2.4-0.7,2.4-2.4c0-1.6-0.9-2.2-2.2-2.4c-0.4,0-0.8-0.1-1.3-0.1h-2.4v4.7h2.2V228z"/>
	<path d="M486,221.4c0,1-0.7,1.7-1.7,1.7c-1,0-1.7-0.7-1.7-1.7c0-1,0.7-1.7,1.7-1.7C485.3,219.8,486,220.5,486,221.4z M482.6,237
		v-12.6h3.3v12.5h-3.3V237z"/>
	<path d="M498.3,228.1H495c-0.2-1.1-0.8-1.8-1.9-1.8c-0.9,0-1.4,0.6-1.4,1.3c0,0.9,0.8,1.4,2.9,1.9c2.6,0.6,4.1,1.7,4.1,4
		c0,2.6-2.3,3.8-5.1,3.8c-3.1,0-5.2-1.3-5.5-4.1h3.3c0.3,1.3,1.2,2,2.4,2c1,0,1.8-0.4,1.8-1.3c0-0.9-0.8-1.5-3-2
		c-2.4-0.6-3.9-1.6-3.9-3.8c0-2.4,1.9-3.9,5-3.9C496.3,224.1,498.1,225.7,498.3,228.1z"/>
	<path d="M511.9,231.5H503c0.2,2.7,1.4,3.5,2.9,3.5s2.4-0.8,2.7-2.2h3.3c-0.6,3-3,4.4-5.9,4.4c-3.5,0-6.1-2.2-6.1-6.6
		c0-3.8,2.6-6.7,6.4-6.7s5.8,3,5.8,6.4C512,230.7,512,231.1,511.9,231.5z M503.1,229.4h5.5c-0.2-1.9-1.1-3.1-2.7-3.1
		S503.4,227.3,503.1,229.4z"/>
</g>
<path d="M226.2,261.5c-0.6,0-1.1,0-1.7,0c-2.2-0.1-4.4-0.3-6.6-0.4c-0.8,0-1-0.3-1-1.1c0-8.8,0-17.5,0-26.3c0-1.1,0.4-1,1.2-0.8
	c5.3,1.1,10.7,1.1,15.9-0.7c5-1.7,8.7-5.2,10.9-10c2.6-5.4,4.8-11.1,7.3-16.6c0.3-0.8,0.1-1.4-0.2-2.2c-6.7-16.4-13.3-32.8-20-49.2
	c-9.5-23.5-19.1-46.9-28.6-70.5c-0.2-0.5-0.2-1-0.8-1.3c-6.1,23.8-22,37.1-45.5,42.5c16.1,25.8,32.3,51.7,48.4,77.8
	c-0.5,0.4-1,0.2-1.5,0.2c-12.4,0-24.8,0-37.2,0c-1.1,0-1.7-0.3-2.4-1.3c-7.4-12.4-14.8-24.9-22.1-37.3c-0.4-0.7-0.6-1.3-0.6-2.2
	c0-21.2,0-42.4,0-63.7c0-1.1,0.4-1.5,1.5-1.7c11.1-2.6,19.7-8.5,23.2-19.6c6.6-20.5-4.4-39.5-26.3-42.4c-1.9-0.2-3.8-0.3-5.7-0.3
	c-15.4,0-30.8,0-46.2,0c-1.5,0-1.7,0.4-1.7,1.8c0.1,8.4,0,16.8,0.1,25.3c0,1.3-0.3,1.7-1.7,1.7C74.1,63,63.5,63,53,63.1
	c-1.2,0-1.6-0.3-1.6-1.6c0-18.9,0-37.6,0-56.5c0-1.3,0.4-1.5,1.6-1.5c29.7,0,59.3-0.1,89,0.1c17,0.1,32.2,5.4,44.6,17.5
	c8.3,8.2,13.6,18,16,29.4c0.4,2,0.8,4.2,1,6.4c0.1,1.2,0.5,1.5,1.6,1.5c6.7-0.1,13.3,0,19.9-0.1c1.3,0,1.8,0.5,2.4,1.6
	c12.2,31.5,24.5,63,36.8,94.5c1.5,3.9,3,7.7,4.6,11.9c1.5-4,3-7.6,4.4-11.2c12.4-31.9,24.8-63.7,37.2-95.6c0.4-0.9,0.8-1.3,1.8-1.3
	c44.5,0,89,0,133.5,0c1.1,0,1.5,0.2,1.5,1.4c-0.1,6.9-0.1,13.7,0,20.6c0,1-0.5,1.7-1,2.5c-16.3,21.2-32.5,42.5-48.8,63.7
	c-7.1,9.2-14,18.4-21.1,27.6c-0.3,0.3-0.5,0.7-1,1.4c0.9,0,1.6,0,2.3,0c23,0,46,0,69,0c1.5,0,2,0.3,1.9,1.9
	c-0.1,7.9-0.1,15.7,0,23.6c0,1.2-0.2,1.7-1.6,1.7c-37.1,0-74.3,0-111.4,0c-1.3,0-1.6-0.3-1.6-1.6c0.1-6.8,0.1-13.6,0-20.4
	c0-1.1,0.3-1.9,0.9-2.9c23.3-30.3,46.6-60.8,69.9-91.1c0.1-0.1,0.2-0.3,0.3-0.5c-0.6-0.3-1.2-0.2-1.8-0.2c-22.5,0-45.1,0-67.5-0.1
	c-1.6,0-2.4,0.4-3,1.9c-19.4,47.3-38.6,94.7-58.1,142c-7.9,19.1-22.5,29.1-42.9,30.9C229.9,261.4,228.1,261.4,226.2,261.5z"/>
<g>
	<path class="st0" d="M134.6,201.7c0,1.2-0.2,1.6-1.6,1.6c-11.1-0.1-22.1,0-33.3,0c-1.2,0-1.5-0.3-1.5-1.5c0.1-8.7,0-18.8,0-27.5
		c0-0.2,0-0.3,0-0.5v-14v-0.7c0-13.2,0-26.5,0-39.8l0,0v-0.1c0,0,0.1-0.5,0.3-0.6c0,0,0.2-0.2,0.5-0.2c0,0,0.2,0,0.5,0
		c0.3,0,1.5,0,1.5,0h2.9h4.1h2.7l-1.3-1.3l-3.2-3.1l-5.1-4.9l-2-2c0,0-0.2-0.1-0.4-0.5c0,0-0.2-0.3-0.3-0.8c0,0,0-0.2,0-0.3
		c0-18.9,0-37.7,0-56.6c0-1.1,0.3-1.4,1.4-1.4c11.2,0,22.3,0,33.4,0c1.2,0,1.5,0.5,1.5,1.6C134.6,99.8,134.6,150.8,134.6,201.7z"/>
</g>
<g>
	<path class="st1" d="M38.3,191.3v-17.2c0-0.1,0-0.1,0-0.2c0,0-0.1-0.5-0.3-0.6c0,0-0.2-0.2-0.6-0.2c0,0-0.2,0-0.5,0
		c-0.3,0-1.5,0-1.5,0h-2.9h-4.1h-2.7l1.3-1.3l3.2-3.1l5.1-4.9l2.2-2c0,0,0.1-0.1,0.4-0.5c0,0,0.2-0.3,0.3-0.8l0.1-0.3
		c0-6.4,0-15.1,0-15.1c0,0.1,0,0.2,0,0.2v-0.7v-13.8l0,0c0-0.1,0-0.2,0-0.3c0-7.4,0-14.8,0-22.1c0-0.9-0.3-1.2-1.2-1.2
		c-11.7,0-23.5,0.1-35.1,0.1v96.2c11.6,0,23.2,0,34.8,0c1.2,0,1.5-0.3,1.5-1.5C38.3,198.2,38.3,194.8,38.3,191.3z M38.3,144.1
		L38.3,144.1L38.3,144.1c0,0,0-0.1-0.1-0.2C38.3,144,38.3,144.1,38.3,144.1z"/>
</g>
<path class="st2" d="M86.7,174.9c0-0.3,0-0.6-0.1-0.9v-0.1v0.1c0,0,0-0.1,0-0.2v0.1v-14.3v-0.4c0-13.3,0-26.6,0-39.9v-0.1
	c0,0-0.1-0.5-0.3-0.6c0,0-0.2-0.2-0.5-0.2c0,0-0.2,0-0.5,0c-0.3,0-1.5,0-1.5,0h-2.9h-4.1h-2.7l1.3-1.3l3.2-3.1l5.1-4.9l2-2
	c0,0,0.2-0.1,0.4-0.5c0,0,0.2-0.3,0.3-0.8c0,0,0-0.2,0-0.3l0,0c0-9.3,0-18.6,0-28c0-1.1-0.2-1.4-1.4-1.4c-11.2,0-22.2,0-33.4,0
	c-1.1,0-1.3,0.4-1.3,1.4c0,17.7,0,35.6,0,53.3c0,0.1,0,0.2,0,0.3v14.2l0,0c0,0.1,0,0.2,0,0.2v0.5c0,4.7,0,9.4,0,14.2
	c0,0.1,0,0.3,0,0.3c0.1,0.5,0.3,0.8,0.3,0.8c0.3,0.4,0.4,0.5,0.4,0.5l2,2l5.1,4.9l3.2,3.1l1.3,1.3H60h-4.1h-2.9c0,0-1.2,0-1.4,0
	c-0.3,0-0.5,0-0.5,0c-0.3,0-0.6,0.2-0.6,0.2c-0.2,0.2-0.3,0.6-0.3,0.6l0,0c0,9.3,0,18.6,0,27.9c0,1.3,0.4,1.6,1.6,1.6
	c11,0,21.9-0.1,32.9,0c1.2,0,1.6-0.3,1.6-1.6C86.6,192.8,86.6,183.8,86.7,174.9z M50.5,144.7L50.5,144.7L50.5,144.7L50.5,144.7
	L50.5,144.7z"/>
<path d="M38.3,174.9v-0.7C38.4,174.5,38.3,174.9,38.3,174.9z"/>
</svg>
