<svg width="46" height="46" viewBox="0 0 46 46" fill="none" xmlns="http://www.w3.org/2000/svg">
<circle cx="23" cy="23" r="23" fill="#4ECB71"/>
<path opacity="0.5" fill-rule="evenodd" clip-rule="evenodd" d="M12.6893 23.0215C12.6893 23.2558 12.7824 23.4806 12.9481 23.6464C13.1138 23.8121 13.3386 23.9052 13.573 23.9052H24.4727V22.1377H13.573C13.0852 22.1377 12.6893 22.5336 12.6893 23.0215Z" fill="black"/>
<path d="M24.4738 15.9513C24.4739 15.7767 24.5258 15.6059 24.623 15.4608C24.7201 15.3156 24.858 15.2024 25.0194 15.1356C25.1808 15.0688 25.3584 15.0513 25.5297 15.0853C25.7011 15.1193 25.8585 15.2034 25.9821 15.3268L33.0521 22.3969C33.2176 22.5626 33.3105 22.7872 33.3105 23.0214C33.3105 23.2556 33.2176 23.4802 33.0521 23.6459L25.9821 30.7159C25.8585 30.8394 25.7011 30.9234 25.5297 30.9575C25.3584 30.9915 25.1808 30.974 25.0194 30.9072C24.858 30.8403 24.7201 30.7272 24.623 30.582C24.5258 30.4368 24.4739 30.2661 24.4738 30.0914V15.9513Z" fill="black"/>
</svg>
