<svg width="355" height="135" viewBox="0 0 355 135" fill="none" xmlns="http://www.w3.org/2000/svg">
<g filter="url(#filter0_d_736_370)">
<rect x="40" y="40" width="275" height="55" rx="9.24925" fill="white"/>
<rect x="40.991" y="40.991" width="273.018" height="53.018" rx="8.25826" stroke="white" stroke-width="1.98198"/>
</g>
<path d="M109.725 62.812V68.4986C109.725 69.1216 109.887 69.5999 110.212 69.9334C110.537 70.2581 110.993 70.4204 111.581 70.4204C112.178 70.4204 112.638 70.2581 112.963 69.9334C113.288 69.5999 113.45 69.1216 113.45 68.4986V62.812H115.306V68.4854C115.306 69.2664 115.135 69.929 114.793 70.4731C114.459 71.0084 114.007 71.412 113.437 71.6841C112.875 71.9561 112.248 72.0921 111.554 72.0921C110.87 72.0921 110.247 71.9561 109.685 71.6841C109.132 71.412 108.694 71.0084 108.369 70.4731C108.044 69.929 107.882 69.2664 107.882 68.4854V62.812H109.725ZM118.929 65.7606C119.166 65.4271 119.491 65.1507 119.903 64.9313C120.325 64.7032 120.803 64.5891 121.338 64.5891C121.961 64.5891 122.523 64.7427 123.023 65.0498C123.532 65.3569 123.931 65.7957 124.221 66.3661C124.519 66.9278 124.669 67.5815 124.669 68.3274C124.669 69.0734 124.519 69.7359 124.221 70.3151C123.931 70.8855 123.532 71.3287 123.023 71.6446C122.523 71.9605 121.961 72.1185 121.338 72.1185C120.803 72.1185 120.329 72.0088 119.917 71.7894C119.513 71.57 119.184 71.2936 118.929 70.9601V75.4751H117.087V64.7076H118.929V65.7606ZM122.786 68.3274C122.786 67.8887 122.694 67.5113 122.51 67.1954C122.334 66.8707 122.097 66.625 121.799 66.4583C121.509 66.2915 121.193 66.2082 120.851 66.2082C120.518 66.2082 120.202 66.2959 119.903 66.4714C119.614 66.6382 119.377 66.8839 119.193 67.2086C119.017 67.5333 118.929 67.915 118.929 68.3538C118.929 68.7926 119.017 69.1743 119.193 69.499C119.377 69.8237 119.614 70.0738 119.903 70.2493C120.202 70.416 120.518 70.4994 120.851 70.4994C121.193 70.4994 121.509 70.4116 121.799 70.2361C122.097 70.0606 122.334 69.8105 122.51 69.4858C122.694 69.1611 122.786 68.775 122.786 68.3274ZM127.851 62.2592V72H126.008V62.2592H127.851ZM132.91 72.1185C132.207 72.1185 131.576 71.9649 131.014 71.6578C130.452 71.3418 130.009 70.8987 129.685 70.3283C129.369 69.7579 129.211 69.0997 129.211 68.3538C129.211 67.6079 129.373 66.9497 129.698 66.3793C130.031 65.8089 130.483 65.3701 131.054 65.063C131.624 64.747 132.26 64.5891 132.962 64.5891C133.664 64.5891 134.3 64.747 134.871 65.063C135.441 65.3701 135.889 65.8089 136.214 66.3793C136.547 66.9497 136.714 67.6079 136.714 68.3538C136.714 69.0997 136.543 69.7579 136.2 70.3283C135.867 70.8987 135.411 71.3418 134.831 71.6578C134.261 71.9649 133.62 72.1185 132.91 72.1185ZM132.91 70.5126C133.243 70.5126 133.555 70.4336 133.844 70.2756C134.142 70.1089 134.379 69.8632 134.555 69.5385C134.73 69.2138 134.818 68.8189 134.818 68.3538C134.818 67.6605 134.634 67.1296 134.265 66.761C133.906 66.3837 133.462 66.195 132.936 66.195C132.409 66.195 131.966 66.3837 131.606 66.761C131.255 67.1296 131.08 67.6605 131.08 68.3538C131.08 69.047 131.251 69.5823 131.593 69.9597C131.944 70.3283 132.383 70.5126 132.91 70.5126ZM137.592 68.3274C137.592 67.5903 137.736 66.9365 138.026 66.3661C138.324 65.7957 138.724 65.3569 139.224 65.0498C139.733 64.7427 140.299 64.5891 140.922 64.5891C141.466 64.5891 141.94 64.6988 142.344 64.9182C142.756 65.1376 143.085 65.414 143.331 65.7474V64.7076H145.187V72H143.331V70.9338C143.094 71.276 142.765 71.5612 142.344 71.7894C141.931 72.0088 141.453 72.1185 140.909 72.1185C140.294 72.1185 139.733 71.9605 139.224 71.6446C138.724 71.3287 138.324 70.8855 138.026 70.3151C137.736 69.7359 137.592 69.0734 137.592 68.3274ZM143.331 68.3538C143.331 67.9062 143.243 67.5245 143.068 67.2086C142.892 66.8839 142.655 66.6382 142.357 66.4714C142.058 66.2959 141.738 66.2082 141.396 66.2082C141.054 66.2082 140.738 66.2915 140.448 66.4583C140.158 66.625 139.922 66.8707 139.737 67.1954C139.562 67.5113 139.474 67.8887 139.474 68.3274C139.474 68.7662 139.562 69.1523 139.737 69.4858C139.922 69.8105 140.158 70.0606 140.448 70.2361C140.746 70.4116 141.062 70.4994 141.396 70.4994C141.738 70.4994 142.058 70.416 142.357 70.2493C142.655 70.0738 142.892 69.8281 143.068 69.5121C143.243 69.1874 143.331 68.8013 143.331 68.3538ZM146.513 68.3274C146.513 67.5903 146.658 66.9365 146.947 66.3661C147.246 65.7957 147.649 65.3569 148.158 65.0498C148.667 64.7427 149.233 64.5891 149.856 64.5891C150.33 64.5891 150.782 64.6944 151.212 64.905C151.642 65.1068 151.984 65.3789 152.239 65.7211V62.2592H154.108V72H152.239V70.9206C152.011 71.2804 151.69 71.57 151.278 71.7894C150.865 72.0088 150.387 72.1185 149.843 72.1185C149.229 72.1185 148.667 71.9605 148.158 71.6446C147.649 71.3287 147.246 70.8855 146.947 70.3151C146.658 69.7359 146.513 69.0734 146.513 68.3274ZM152.252 68.3538C152.252 67.9062 152.164 67.5245 151.989 67.2086C151.813 66.8839 151.576 66.6382 151.278 66.4714C150.98 66.2959 150.659 66.2082 150.317 66.2082C149.975 66.2082 149.659 66.2915 149.369 66.4583C149.08 66.625 148.843 66.8707 148.658 67.1954C148.483 67.5113 148.395 67.8887 148.395 68.3274C148.395 68.7662 148.483 69.1523 148.658 69.4858C148.843 69.8105 149.08 70.0606 149.369 70.2361C149.668 70.4116 149.984 70.4994 150.317 70.4994C150.659 70.4994 150.98 70.416 151.278 70.2493C151.576 70.0738 151.813 69.8281 151.989 69.5121C152.164 69.1874 152.252 68.8013 152.252 68.3538ZM166.021 64.7076L161.506 75.4488H159.545L161.124 71.8157L158.202 64.7076H160.269L162.151 69.8017L164.06 64.7076H166.021ZM170.253 72.1185C169.551 72.1185 168.919 71.9649 168.357 71.6578C167.795 71.3418 167.352 70.8987 167.028 70.3283C166.712 69.7579 166.554 69.0997 166.554 68.3538C166.554 67.6079 166.716 66.9497 167.041 66.3793C167.374 65.8089 167.826 65.3701 168.397 65.063C168.967 64.747 169.603 64.5891 170.305 64.5891C171.007 64.5891 171.643 64.747 172.214 65.063C172.784 65.3701 173.232 65.8089 173.557 66.3793C173.89 66.9497 174.057 67.6079 174.057 68.3538C174.057 69.0997 173.886 69.7579 173.543 70.3283C173.21 70.8987 172.754 71.3418 172.174 71.6578C171.604 71.9649 170.963 72.1185 170.253 72.1185ZM170.253 70.5126C170.586 70.5126 170.898 70.4336 171.187 70.2756C171.486 70.1089 171.722 69.8632 171.898 69.5385C172.073 69.2138 172.161 68.8189 172.161 68.3538C172.161 67.6605 171.977 67.1296 171.608 66.761C171.249 66.3837 170.805 66.195 170.279 66.195C169.752 66.195 169.309 66.3837 168.949 66.761C168.598 67.1296 168.423 67.6605 168.423 68.3538C168.423 69.047 168.594 69.5823 168.936 69.9597C169.287 70.3283 169.726 70.5126 170.253 70.5126ZM182.293 64.7076V72H180.437V71.0786C180.2 71.3945 179.888 71.6446 179.502 71.8289C179.125 72.0044 178.713 72.0921 178.265 72.0921C177.695 72.0921 177.19 71.9737 176.751 71.7367C176.312 71.491 175.966 71.1356 175.711 70.6705C175.466 70.1966 175.343 69.635 175.343 68.9856V64.7076H177.186V68.7223C177.186 69.3015 177.33 69.7491 177.62 70.065C177.91 70.3721 178.304 70.5257 178.805 70.5257C179.314 70.5257 179.713 70.3721 180.003 70.065C180.292 69.7491 180.437 69.3015 180.437 68.7223V64.7076H182.293ZM185.954 65.8396C186.191 65.4535 186.498 65.1507 186.876 64.9313C187.262 64.7119 187.7 64.6022 188.192 64.6022V66.5372H187.705C187.126 66.5372 186.687 66.6733 186.388 66.9453C186.099 67.2173 185.954 67.6912 185.954 68.3669V72H184.111V64.7076H185.954V65.8396ZM194.413 62.812V72H192.57V62.812H194.413ZM200.274 64.6022C201.143 64.6022 201.845 64.8787 202.381 65.4315C202.916 65.9756 203.183 66.7391 203.183 67.7219V72H201.341V67.972C201.341 67.3929 201.196 66.9497 200.906 66.6426C200.617 66.3266 200.222 66.1687 199.722 66.1687C199.213 66.1687 198.809 66.3266 198.511 66.6426C198.221 66.9497 198.076 67.3929 198.076 67.972V72H196.233V64.7076H198.076V65.6158C198.322 65.2999 198.633 65.0542 199.011 64.8787C199.397 64.6944 199.818 64.6022 200.274 64.6022ZM204.462 68.3538C204.462 67.5991 204.616 66.9409 204.923 66.3793C205.23 65.8089 205.656 65.3701 206.2 65.063C206.744 64.747 207.367 64.5891 208.069 64.5891C208.973 64.5891 209.719 64.8172 210.307 65.2736C210.903 65.7211 211.303 66.353 211.504 67.1691H209.517C209.411 66.8532 209.232 66.6074 208.977 66.4319C208.731 66.2477 208.424 66.1555 208.056 66.1555C207.529 66.1555 207.112 66.3486 206.805 66.7347C206.498 67.112 206.344 67.6517 206.344 68.3538C206.344 69.047 206.498 69.5867 206.805 69.9729C207.112 70.3502 207.529 70.5389 208.056 70.5389C208.802 70.5389 209.289 70.2054 209.517 69.5385H211.504C211.303 70.3283 210.903 70.9557 210.307 71.4208C209.71 71.8859 208.964 72.1185 208.069 72.1185C207.367 72.1185 206.744 71.9649 206.2 71.6578C205.656 71.3418 205.23 70.9031 204.923 70.3414C204.616 69.771 204.462 69.1085 204.462 68.3538ZM216.093 72.1185C215.391 72.1185 214.759 71.9649 214.197 71.6578C213.635 71.3418 213.192 70.8987 212.868 70.3283C212.552 69.7579 212.394 69.0997 212.394 68.3538C212.394 67.6079 212.556 66.9497 212.881 66.3793C213.214 65.8089 213.666 65.3701 214.237 65.063C214.807 64.747 215.443 64.5891 216.145 64.5891C216.847 64.5891 217.484 64.747 218.054 65.063C218.624 65.3701 219.072 65.8089 219.397 66.3793C219.73 66.9497 219.897 67.6079 219.897 68.3538C219.897 69.0997 219.726 69.7579 219.383 70.3283C219.05 70.8987 218.594 71.3418 218.014 71.6578C217.444 71.9649 216.803 72.1185 216.093 72.1185ZM216.093 70.5126C216.426 70.5126 216.738 70.4336 217.027 70.2756C217.326 70.1089 217.563 69.8632 217.738 69.5385C217.914 69.2138 218.001 68.8189 218.001 68.3538C218.001 67.6605 217.817 67.1296 217.448 66.761C217.089 66.3837 216.645 66.195 216.119 66.195C215.592 66.195 215.149 66.3837 214.789 66.761C214.438 67.1296 214.263 67.6605 214.263 68.3538C214.263 69.047 214.434 69.5823 214.776 69.9597C215.127 70.3283 215.566 70.5126 216.093 70.5126ZM230.305 64.6022C231.2 64.6022 231.92 64.8787 232.464 65.4315C233.017 65.9756 233.293 66.7391 233.293 67.7219V72H231.45V67.972C231.45 67.4016 231.305 66.9672 231.016 66.6689C230.726 66.3617 230.331 66.2082 229.831 66.2082C229.331 66.2082 228.932 66.3617 228.633 66.6689C228.344 66.9672 228.199 67.4016 228.199 67.972V72H226.356V67.972C226.356 67.4016 226.211 66.9672 225.922 66.6689C225.632 66.3617 225.237 66.2082 224.737 66.2082C224.228 66.2082 223.824 66.3617 223.526 66.6689C223.236 66.9672 223.091 67.4016 223.091 67.972V72H221.249V64.7076H223.091V65.5895C223.328 65.2823 223.631 65.041 224 64.8655C224.377 64.69 224.79 64.6022 225.237 64.6022C225.807 64.6022 226.316 64.7251 226.764 64.9708C227.212 65.2078 227.558 65.55 227.804 65.9976C228.041 65.5763 228.383 65.2385 228.831 64.984C229.287 64.7295 229.778 64.6022 230.305 64.6022ZM241.821 68.1958C241.821 68.4591 241.803 68.696 241.768 68.9066H236.437C236.481 69.4332 236.665 69.8456 236.99 70.144C237.315 70.4423 237.714 70.5915 238.188 70.5915C238.872 70.5915 239.359 70.2976 239.649 69.7096H241.637C241.426 70.4116 241.022 70.9908 240.426 71.4471C239.829 71.8947 239.096 72.1185 238.227 72.1185C237.525 72.1185 236.893 71.9649 236.332 71.6578C235.779 71.3418 235.345 70.8987 235.029 70.3283C234.721 69.7579 234.568 69.0997 234.568 68.3538C234.568 67.5991 234.721 66.9365 235.029 66.3661C235.336 65.7957 235.766 65.3569 236.319 65.0498C236.871 64.7427 237.508 64.5891 238.227 64.5891C238.921 64.5891 239.539 64.7383 240.083 65.0366C240.636 65.335 241.062 65.7606 241.36 66.3135C241.667 66.8576 241.821 67.485 241.821 68.1958ZM239.912 67.6693C239.903 67.1954 239.732 66.8181 239.399 66.5372C239.065 66.2477 238.657 66.1029 238.175 66.1029C237.718 66.1029 237.332 66.2433 237.016 66.5241C236.709 66.7961 236.52 67.1779 236.45 67.6693H239.912ZM253.003 65.6553C253.003 66.1467 252.884 66.6074 252.647 67.0374C252.419 67.4674 252.055 67.8141 251.555 68.0773C251.063 68.3406 250.44 68.4722 249.685 68.4722H248.145V72H246.303V62.812H249.685C250.396 62.812 251.002 62.9349 251.502 63.1806C252.002 63.4263 252.375 63.7642 252.621 64.1942C252.875 64.6242 253.003 65.1112 253.003 65.6553ZM249.607 66.9848C250.115 66.9848 250.493 66.8707 250.739 66.6426C250.984 66.4056 251.107 66.0765 251.107 65.6553C251.107 64.7602 250.607 64.3127 249.607 64.3127H248.145V66.9848H249.607ZM256.154 65.8396C256.391 65.4535 256.698 65.1507 257.075 64.9313C257.461 64.7119 257.9 64.6022 258.392 64.6022V66.5372H257.905C257.325 66.5372 256.887 66.6733 256.588 66.9453C256.299 67.2173 256.154 67.6912 256.154 68.3669V72H254.311V64.7076H256.154V65.8396ZM262.871 72.1185C262.169 72.1185 261.537 71.9649 260.976 71.6578C260.414 71.3418 259.971 70.8987 259.646 70.3283C259.33 69.7579 259.172 69.0997 259.172 68.3538C259.172 67.6079 259.335 66.9497 259.659 66.3793C259.993 65.8089 260.445 65.3701 261.015 65.063C261.585 64.747 262.222 64.5891 262.924 64.5891C263.626 64.5891 264.262 64.747 264.832 65.063C265.403 65.3701 265.85 65.8089 266.175 66.3793C266.509 66.9497 266.675 67.6079 266.675 68.3538C266.675 69.0997 266.504 69.7579 266.162 70.3283C265.828 70.8987 265.372 71.3418 264.793 71.6578C264.222 71.9649 263.582 72.1185 262.871 72.1185ZM262.871 70.5126C263.205 70.5126 263.516 70.4336 263.806 70.2756C264.104 70.1089 264.341 69.8632 264.516 69.5385C264.692 69.2138 264.78 68.8189 264.78 68.3538C264.78 67.6605 264.595 67.1296 264.227 66.761C263.867 66.3837 263.424 66.195 262.897 66.195C262.371 66.195 261.928 66.3837 261.568 66.761C261.217 67.1296 261.041 67.6605 261.041 68.3538C261.041 69.047 261.212 69.5823 261.555 69.9597C261.906 70.3283 262.345 70.5126 262.871 70.5126ZM271.265 72.1185C270.563 72.1185 269.931 71.9649 269.37 71.6578C268.808 71.3418 268.365 70.8987 268.04 70.3283C267.724 69.7579 267.566 69.0997 267.566 68.3538C267.566 67.6079 267.729 66.9497 268.053 66.3793C268.387 65.8089 268.839 65.3701 269.409 65.063C269.98 64.747 270.616 64.5891 271.318 64.5891C272.02 64.5891 272.656 64.747 273.227 65.063C273.797 65.3701 274.244 65.8089 274.569 66.3793C274.903 66.9497 275.069 67.6079 275.069 68.3538C275.069 69.0997 274.898 69.7579 274.556 70.3283C274.223 70.8987 273.766 71.3418 273.187 71.6578C272.617 71.9649 271.976 72.1185 271.265 72.1185ZM271.265 70.5126C271.599 70.5126 271.91 70.4336 272.2 70.2756C272.498 70.1089 272.735 69.8632 272.911 69.5385C273.086 69.2138 273.174 68.8189 273.174 68.3538C273.174 67.6605 272.99 67.1296 272.621 66.761C272.261 66.3837 271.818 66.195 271.292 66.195C270.765 66.195 270.322 66.3837 269.962 66.761C269.611 67.1296 269.436 67.6605 269.436 68.3538C269.436 69.047 269.607 69.5823 269.949 69.9597C270.3 70.3283 270.739 70.5126 271.265 70.5126ZM279.765 66.2213H278.488V72H276.619V66.2213H275.789V64.7076H276.619V64.339C276.619 63.4439 276.873 62.7857 277.382 62.3645C277.891 61.9433 278.659 61.7458 279.686 61.7721V63.3254C279.238 63.3166 278.927 63.3912 278.751 63.5492C278.576 63.7071 278.488 63.9923 278.488 64.4048V64.7076H279.765V66.2213Z" fill="black" fill-opacity="0.76"/>
<path opacity="0.5" d="M78 64.002C80.175 64.014 81.353 64.111 82.121 64.879C83 65.758 83 67.172 83 70V71C83 73.829 83 75.243 82.121 76.122C81.243 77 79.828 77 77 77H69C66.172 77 64.757 77 63.879 76.122C63 75.242 63 73.829 63 71V70C63 67.172 63 65.758 63.879 64.879C64.647 64.111 65.825 64.014 68 64.002" stroke="black" stroke-width="1.5" stroke-linecap="round"/>
<path d="M73 70V57M73 57L76 60.5M73 57L70 60.5" stroke="black" stroke-width="1.5" stroke-linecap="round" stroke-linejoin="round"/>
<defs>
<filter id="filter0_d_736_370" x="0.360363" y="0.360363" width="354.279" height="134.279" filterUnits="userSpaceOnUse" color-interpolation-filters="sRGB">
<feFlood flood-opacity="0" result="BackgroundImageFix"/>
<feColorMatrix in="SourceAlpha" type="matrix" values="0 0 0 0 0 0 0 0 0 0 0 0 0 0 0 0 0 0 127 0" result="hardAlpha"/>
<feOffset/>
<feGaussianBlur stdDeviation="19.8198"/>
<feComposite in2="hardAlpha" operator="out"/>
<feColorMatrix type="matrix" values="0 0 0 0 0 0 0 0 0 0 0 0 0 0 0 0 0 0 0.25 0"/>
<feBlend mode="normal" in2="BackgroundImageFix" result="effect1_dropShadow_736_370"/>
<feBlend mode="normal" in="SourceGraphic" in2="effect1_dropShadow_736_370" result="shape"/>
</filter>
</defs>
</svg>
