<svg width="708" height="252" viewBox="0 0 708 252" fill="none" xmlns="http://www.w3.org/2000/svg">
<path d="M125.615 187.104V187.921H126.306L126.42 187.239L125.615 187.104ZM37.901 187.104V186.288H37.0135L37.0872 187.172L37.901 187.104ZM46.9972 207.463L46.4447 208.064L46.9972 207.463ZM90.7458 200.316V199.499H90.2377L90.0132 199.955L90.7458 200.316ZM123.449 200.316L124.231 200.55L124.546 199.499H123.449V200.316ZM103.524 228.904L104.014 229.557L104.02 229.552L103.524 228.904ZM36.1684 232.369L35.7632 233.078L35.7699 233.082L35.7766 233.085L36.1684 232.369ZM14.7272 210.495L14.0082 210.882L14.0129 210.89L14.7272 210.495ZM14.7272 145.305L14.0083 144.918L14.7272 145.305ZM35.9518 123.647L36.3484 124.361L35.9518 123.647ZM97.8928 123.431L97.5002 124.147L97.505 124.149L97.8928 123.431ZM118.901 144.439L118.182 144.827L118.186 144.833L118.19 144.84L118.901 144.439ZM95.0773 166.746V167.563H95.9092L95.8938 166.731L95.0773 166.746ZM86.6308 148.121L86.0953 148.737L86.1048 148.745L86.6308 148.121ZM47.4304 147.904L47.9718 148.515L47.9729 148.514L47.4304 147.904ZM38.1176 166.746L37.3092 166.631L37.176 167.563H38.1176V166.746ZM125.664 175.409C125.664 179.706 125.378 183.558 124.809 186.97L126.42 187.239C127.007 183.72 127.298 179.776 127.298 175.409H125.664ZM125.615 186.288H37.901V187.921H125.615V186.288ZM37.0872 187.172C37.8226 195.997 40.9226 202.99 46.4447 208.064L47.5497 206.861C42.3874 202.118 39.4232 195.538 38.7147 187.037L37.0872 187.172ZM46.4447 208.064C51.9495 213.122 58.721 215.643 66.7057 215.643V214.01C59.0969 214.01 52.7294 211.621 47.5497 206.861L46.4447 208.064ZM66.7057 215.643C72.4551 215.643 77.4265 214.407 81.5842 211.898C85.7441 209.387 89.0377 205.632 91.4783 200.676L90.0132 199.955C87.6892 204.673 84.5938 208.173 80.7403 210.499C76.8846 212.827 72.2184 214.01 66.7057 214.01V215.643ZM90.7458 201.132H123.449V199.499H90.7458V201.132ZM122.667 200.081C119.252 211.463 112.713 220.849 103.028 228.255L104.02 229.552C113.971 221.943 120.715 212.27 124.231 200.55L122.667 200.081ZM103.034 228.251C93.3795 235.491 81.5031 239.133 67.3555 239.133V240.766C81.796 240.766 94.0319 237.043 104.014 229.557L103.034 228.251ZM67.3555 239.133C55.9281 239.133 45.6693 236.634 36.5602 231.653L35.7766 233.085C45.1487 238.211 55.6813 240.766 67.3555 240.766V239.133ZM36.5735 231.66C27.6103 226.538 20.5688 219.357 15.4416 210.099L14.0129 210.89C19.2814 220.403 26.5339 227.804 35.7632 233.078L36.5735 231.66ZM15.4462 210.108C10.4659 200.858 7.96363 190.166 7.96363 178.008H6.33046C6.33046 190.395 8.88162 201.361 14.0083 210.882L15.4462 210.108ZM7.96363 178.008C7.96363 165.704 10.4667 154.94 15.4462 145.692L14.0083 144.918C8.8809 154.44 6.33046 165.478 6.33046 178.008H7.96363ZM15.4462 145.692C20.4276 136.441 27.3921 129.337 36.3484 124.361L35.5552 122.933C26.319 128.065 19.1339 135.399 14.0083 144.918L15.4462 145.692ZM36.3484 124.361C45.3074 119.384 55.6353 116.884 67.3555 116.884V115.251C55.3965 115.251 44.7887 117.804 35.5552 122.933L36.3484 124.361ZM67.3555 116.884C78.641 116.884 88.6823 119.311 97.5002 124.147L98.2855 122.715C89.1997 117.732 78.8827 115.251 67.3555 115.251V116.884ZM97.505 124.149C106.461 128.983 113.349 135.87 118.182 144.827L119.619 144.051C114.635 134.814 107.517 127.697 98.2807 122.712L97.505 124.149ZM118.19 144.84C123.165 153.653 125.664 163.835 125.664 175.409H127.298C127.298 163.593 124.744 153.128 119.612 144.037L118.19 144.84ZM95.8938 166.731C95.7455 158.722 92.8406 152.282 87.1568 147.496L86.1048 148.745C91.3943 153.199 94.1204 159.177 94.2609 166.761L95.8938 166.731ZM87.1662 147.504C81.5169 142.598 74.6074 140.157 66.4892 140.157V141.79C74.2533 141.79 80.7715 144.114 86.0954 148.737L87.1662 147.504ZM66.4892 140.157C58.7984 140.157 52.2476 142.529 46.8879 147.294L47.9729 148.514C53.0088 144.038 59.1639 141.79 66.4892 141.79V140.157ZM46.889 147.293C41.6617 151.923 38.4857 158.395 37.3092 166.631L38.9259 166.862C40.0596 158.926 43.0921 152.837 47.9718 148.515L46.889 147.293ZM38.1176 167.563H95.0773V165.93H38.1176V167.563ZM240.874 147.904H241.691V147.087H240.874V147.904ZM240.874 173.46V174.277H241.691V173.46H240.874ZM149.046 173.46H148.229V174.277H149.046V173.46ZM149.046 147.904V147.087H148.229V147.904H149.046ZM240.058 147.904V173.46H241.691V147.904H240.058ZM240.874 172.643H149.046V174.277H240.874V172.643ZM149.862 173.46V147.904H148.229V173.46H149.862ZM149.046 148.721H240.874V147.087H149.046V148.721ZM360.21 238L359.577 238.517L359.823 238.817H360.21V238ZM305.199 170.645L305.832 170.128L304.383 168.354V170.645H305.199ZM305.199 238V238.817H306.016V238H305.199ZM274.879 238H274.062V238.817H274.879V238ZM274.879 86.8292V86.0126H274.062V86.8292H274.879ZM305.199 86.8292H306.016V86.0126H305.199V86.8292ZM305.199 154.618H304.383V156.92L305.833 155.132L305.199 154.618ZM360.21 86.8292V86.0126H359.821L359.576 86.3147L360.21 86.8292ZM396.811 86.8292L397.439 87.3516L398.554 86.0126H396.811V86.8292ZM334.437 161.765L333.81 161.242L333.373 161.768L333.812 162.29L334.437 161.765ZM398.544 238V238.817H400.298L399.169 237.474L398.544 238ZM360.842 237.483L305.832 170.128L304.567 171.161L359.577 238.517L360.842 237.483ZM304.383 170.645V238H306.016V170.645H304.383ZM305.199 237.183H274.879V238.817H305.199V237.183ZM275.695 238V86.8292H274.062V238H275.695ZM274.879 87.6458H305.199V86.0126H274.879V87.6458ZM304.383 86.8292V154.618H306.016V86.8292H304.383ZM305.833 155.132L360.844 87.3438L359.576 86.3147L304.565 154.103L305.833 155.132ZM360.21 87.6458H396.811V86.0126H360.21V87.6458ZM396.184 86.3068L333.81 161.242L335.065 162.287L397.439 87.3516L396.184 86.3068ZM333.812 162.29L397.919 238.526L399.169 237.474L335.062 161.239L333.812 162.29ZM398.544 237.183H360.21V238.817H398.544V237.183ZM538.688 86.8292L539.413 87.2052L540.031 86.0126H538.688V86.8292ZM487.576 185.372L486.851 184.996L486.759 185.173V185.372H487.576ZM487.576 238V238.817H488.392V238H487.576ZM457.255 238H456.439V238.817H457.255V238ZM457.255 185.372H458.072V185.172L457.979 184.995L457.255 185.372ZM405.926 86.8292V86.0126H404.58L405.202 87.2064L405.926 86.8292ZM440.146 86.8292L440.884 86.4817L440.664 86.0126H440.146V86.8292ZM472.632 155.917L471.893 156.265L472.635 157.842L473.372 156.263L472.632 155.917ZM504.902 86.8292V86.0126H504.382L504.162 86.4836L504.902 86.8292ZM537.963 86.4532L486.851 184.996L488.301 185.748L539.413 87.2052L537.963 86.4532ZM486.759 185.372V238H488.392V185.372H486.759ZM487.576 237.183H457.255V238.817H487.576V237.183ZM458.072 238V185.372H456.439V238H458.072ZM457.979 184.995L406.651 86.452L405.202 87.2064L456.531 185.749L457.979 184.995ZM405.926 87.6458H440.146V86.0126H405.926V87.6458ZM439.407 87.1767L471.893 156.265L473.371 155.57L440.884 86.4817L439.407 87.1767ZM473.372 156.263L505.642 87.1748L504.162 86.4836L471.892 155.572L473.372 156.263ZM504.902 87.6458H538.688V86.0126H504.902V87.6458ZM558.774 122.348L558.065 121.942L558.064 121.945L558.774 122.348ZM586.279 94.8426L586.68 95.5543L586.682 95.5526L586.279 94.8426ZM696.517 133.826V134.643H697.646L697.292 133.57L696.517 133.826ZM661.648 133.826L660.912 134.18L661.134 134.643H661.648V133.826ZM646.921 117.583L646.51 118.289L646.517 118.293L646.921 117.583ZM601.656 118.449L602.074 119.151L602.078 119.148L601.656 118.449ZM585.629 135.776L584.905 135.399L584.899 135.41L585.629 135.776ZM585.629 188.62L584.896 188.98L584.9 188.988L584.905 188.997L585.629 188.62ZM601.656 206.163L601.227 206.858L601.236 206.863L601.245 206.869L601.656 206.163ZM646.921 206.813L647.331 207.519L647.336 207.516L646.921 206.813ZM661.648 190.353V189.536H661.134L660.912 190L661.648 190.353ZM696.517 190.353L697.293 190.607L697.643 189.536H696.517V190.353ZM669.878 226.521L670.336 227.197L670.338 227.196L669.878 226.521ZM586.279 229.553L585.872 230.261L585.883 230.267L586.279 229.553ZM558.774 202.048L558.064 202.451L558.068 202.458L558.774 202.048ZM549.628 162.198C549.628 147.452 552.919 134.311 559.484 122.751L558.064 121.945C551.345 133.775 547.995 147.2 547.995 162.198H549.628ZM559.482 122.754C566.197 111.038 575.261 101.977 586.68 95.5543L585.879 94.1309C574.196 100.703 564.922 109.978 558.065 121.942L559.482 122.754ZM586.682 95.5526C598.246 88.9859 611.172 85.6966 625.48 85.6966V84.0634C610.911 84.0634 597.703 87.4159 585.876 94.1325L586.682 95.5526ZM625.48 85.6966C642.225 85.6966 656.861 89.9878 669.418 98.5493L670.338 97.2C657.483 88.4353 642.52 84.0634 625.48 84.0634V85.6966ZM669.418 98.5493C681.968 107.106 690.741 118.939 695.741 134.082L697.292 133.57C692.185 118.104 683.2 105.969 670.338 97.2L669.418 98.5493ZM696.517 133.01H661.648V134.643H696.517V133.01ZM662.384 133.473C658.854 126.119 653.836 120.573 647.324 116.873L646.517 118.293C652.712 121.813 657.511 127.095 660.912 134.18L662.384 133.473ZM647.331 116.877C640.981 113.185 633.616 111.352 625.263 111.352V112.985C633.37 112.985 640.444 114.762 646.51 118.289L647.331 116.877ZM625.263 111.352C616.32 111.352 608.303 113.48 601.234 117.751L602.078 119.148C608.87 115.045 616.591 112.985 625.263 112.985V111.352ZM601.238 117.748C594.312 121.874 588.868 127.766 584.905 135.399L586.354 136.152C590.188 128.769 595.428 123.11 602.074 119.151L601.238 117.748ZM584.899 135.41C581.078 143.053 579.182 151.99 579.182 162.198H580.815C580.815 152.192 582.673 143.515 586.36 136.141L584.899 135.41ZM579.182 162.198C579.182 172.264 581.079 181.198 584.896 188.98L586.363 188.261C582.672 180.738 580.815 172.057 580.815 162.198H579.182ZM584.905 188.997C588.867 196.627 594.308 202.589 601.227 206.858L602.085 205.468C595.432 201.363 590.189 195.629 586.354 188.244L584.905 188.997ZM601.245 206.869C608.312 210.991 616.326 213.044 625.263 213.044V211.411C616.586 211.411 608.861 209.421 602.068 205.458L601.245 206.869ZM625.263 213.044C633.616 213.044 640.981 211.211 647.331 207.519L646.51 206.107C640.444 209.634 633.37 211.411 625.263 211.411V213.044ZM647.336 207.516C653.84 203.673 658.855 198.058 662.384 190.706L660.912 190C657.51 197.086 652.707 202.445 646.505 206.11L647.336 207.516ZM661.648 191.17H696.517V189.536H661.648V191.17ZM695.741 190.099C690.74 205.387 681.966 217.291 669.418 225.847L670.338 227.196C683.202 218.425 692.187 206.217 697.293 190.607L695.741 190.099ZM669.42 225.846C657.01 234.262 642.374 238.483 625.48 238.483V240.116C642.66 240.116 657.623 235.819 670.336 227.197L669.42 225.846ZM625.48 238.483C611.169 238.483 598.24 235.264 586.676 228.84L585.883 230.267C597.709 236.837 610.914 240.116 625.48 240.116V238.483ZM586.686 228.846C575.262 222.276 566.195 213.212 559.48 201.638L558.068 202.458C564.924 214.275 574.195 223.547 585.872 230.261L586.686 228.846ZM559.484 201.645C552.919 190.085 549.628 176.944 549.628 162.198H547.995C547.995 177.196 551.345 190.621 558.064 202.451L559.484 201.645Z" fill="url(#paint0_linear_702_203)"/>
<path d="M402.105 167.773C402.105 169.205 402.015 170.696 401.836 172.247H367.212C367.451 175.348 368.435 177.734 370.165 179.404C371.954 181.015 374.131 181.82 376.696 181.82C380.513 181.82 383.167 180.209 384.658 176.989H400.941C400.106 180.269 398.585 183.221 396.379 185.846C394.231 188.47 391.518 190.528 388.237 192.019C384.957 193.51 381.288 194.256 377.233 194.256C372.342 194.256 367.988 193.212 364.17 191.124C360.353 189.037 357.371 186.055 355.223 182.178C353.076 178.301 352.003 173.768 352.003 168.579C352.003 163.389 353.046 158.856 355.134 154.98C357.281 151.103 360.263 148.12 364.081 146.033C367.898 143.945 372.282 142.901 377.233 142.901C382.064 142.901 386.358 143.915 390.116 145.943C393.873 147.971 396.796 150.864 398.884 154.622C401.031 158.379 402.105 162.763 402.105 167.773ZM386.448 163.747C386.448 161.123 385.553 159.035 383.764 157.485C381.974 155.934 379.738 155.158 377.054 155.158C374.489 155.158 372.312 155.904 370.522 157.395C368.793 158.886 367.719 161.004 367.302 163.747H386.448ZM448.647 155.785V168.489H409.281V155.785H448.647Z" fill="white"/>
<path d="M498.487 193.54L477.373 165.805V193.54H462.074V130.734H477.373V158.29L498.308 130.734H516.291L491.956 161.511L517.186 193.54H498.487Z" fill="#40BDB5"/>
<path d="M578.316 130.734L556.575 172.784V193.54H541.276V172.784L519.536 130.734H536.892L549.06 157.037L561.138 130.734H578.316Z" fill="#FDA657"/>
<path d="M581.885 162.047C581.885 155.844 583.227 150.327 585.911 145.496C588.596 140.605 592.323 136.818 597.095 134.134C601.926 131.39 607.384 130.018 613.468 130.018C620.923 130.018 627.305 131.986 632.614 135.923C637.922 139.859 641.471 145.228 643.26 152.027H626.44C625.188 149.403 623.398 147.405 621.072 146.033C618.806 144.661 616.211 143.975 613.289 143.975C608.577 143.975 604.759 145.615 601.837 148.896C598.914 152.176 597.453 156.56 597.453 162.047C597.453 167.535 598.914 171.919 601.837 175.199C604.759 178.48 608.577 180.12 613.289 180.12C616.211 180.12 618.806 179.434 621.072 178.062C623.398 176.69 625.188 174.692 626.44 172.068H643.26C641.471 178.867 637.922 184.235 632.614 188.172C627.305 192.049 620.923 193.987 613.468 193.987C607.384 193.987 601.926 192.645 597.095 189.961C592.323 187.218 588.596 183.43 585.911 178.599C583.227 173.768 581.885 168.251 581.885 162.047Z" fill="#3F94CD"/>
<defs>
<linearGradient id="paint0_linear_702_203" x1="354.408" y1="72.6759" x2="354.408" y2="216.394" gradientUnits="userSpaceOnUse">
<stop stop-color="white"/>
<stop offset="1" stop-color="white" stop-opacity="0"/>
</linearGradient>
</defs>
</svg>
