<svg xmlns="http://www.w3.org/2000/svg" xmlns:xlink="http://www.w3.org/1999/xlink" version="1.1" x="0px" y="0px" viewBox="0 0 100 125" style="enable-background:new 0 0 100 100;" xml:space="preserve"><style type="text/css">
	.st0{fill-rule:evenodd;clip-rule:evenodd;}
</style><g><polygon points="16.14,85.7 37.94,78.99 22.22,63.54  "/><polygon points="87.72,30.38 90.34,27.72 72.54,10.22 69.92,12.89 71.86,14.79  "/><rect x="23.88" y="33.96" transform="matrix(0.7009 -0.7132 0.7132 0.7009 -16.8417 52.7195)" width="61.11" height="24.96"/><path d="M98.86,9.33C98.1,7.67,97,6.11,95.67,4.77c-1.32-1.34-2.87-2.46-4.52-3.23c-3.87-1.83-8.37-1.75-11.93,1.88L75.5,7.21   L93.3,24.7l3.73-3.8l0,0l0.04-0.04C100.55,17.54,100.64,13.15,98.86,9.33z"/><path d="M84.99,91.68c0,0.48-0.2,0.91-0.51,1.23c-0.32,0.32-0.75,0.51-1.23,0.51H7.95c-0.48,0-0.91-0.2-1.23-0.51   c-0.32-0.32-0.51-0.75-0.51-1.23v-75.3c0-0.48,0.2-0.91,0.51-1.23c0.32-0.32,0.75-0.51,1.23-0.51h45.13l5.76-6.21H7.95   c-2.19,0-4.18,0.89-5.62,2.33S0,14.19,0,16.38v75.3c0,2.19,0.89,4.18,2.33,5.62c1.44,1.44,3.43,2.33,5.62,2.33h75.3   c2.19,0,4.18-0.89,5.62-2.33c1.44-1.44,2.33-3.43,2.33-5.62V41.42l-6.21,6.02V91.68z"/></g><text x="0" y="115" fill="#000000" font-size="5px" font-weight="bold" font-family="'Helvetica Neue', Helvetica, Arial-Unicode, Arial, Sans-serif">Created by AHMAD SIDIK</text><text x="0" y="120" fill="#000000" font-size="5px" font-weight="bold" font-family="'Helvetica Neue', Helvetica, Arial-Unicode, Arial, Sans-serif">from the Noun Project</text></svg>